<svg
   viewBox="0 0 16 16" class="contact__link__svg"><path
     d="M 13.747582,0.20235485 0.74858354,7.6993065 c -1.07491708,0.6218741 -0.97180002,2.2125119 0.17811129,2.6843945 l 3.57159947,1.478148 v 2.63752 c 0,1.450016 1.8498572,2.046897 2.7060412,0.893757 l 1.3686446,-1.84689 3.4966059,1.443765 c 0.184361,0.07501 0.378095,0.1125 0.571831,0.1125 0.25623,0 0.509336,-0.06561 0.737443,-0.193757 0.399969,-0.224999 0.674947,-0.625004 0.746817,-1.078134 L 15.981783,1.7304977 C 16.172394,0.47735875 14.828748,-0.4195292 13.747582,0.20235485 Z M 5.9981786,14.499369 v -2.018766 l 1.1436617,0.471881 z M 12.641417,13.602491 7.8355368,11.618088 12.216449,5.2961577 C 12.550799,4.8117756 11.919597,4.2492667 11.475882,4.6336501 L 4.8670158,10.393082 1.4985257,8.9993195 14.497522,1.4992376 Z"
     style="fill:#E64868; fill-opacity:1;stroke-width:0.03124895"
     /></svg>